<svg width="1500" height="333" viewBox="0 0 1500 333" fill="none" xmlns="http://www.w3.org/2000/svg">
<g clip-path="url(#clip0)">
<path fill-rule="evenodd" clip-rule="evenodd" d="M110.568 164.177L166.365 76.4917L222.164 164.177L166.365 196.06L110.568 164.177Z" fill="#1F294F"/>
<path fill-rule="evenodd" clip-rule="evenodd" d="M110.568 179.152L166.365 211.039L222.164 179.152L166.365 254.879L110.568 179.152Z" fill="#1F294F"/>
<path fill-rule="evenodd" clip-rule="evenodd" d="M191.74 40.9217C183.075 44.9652 174.637 49.4803 166.465 54.4466C158.242 49.4247 149.732 44.8879 140.979 40.8594C149.149 35.3367 157.592 30.2285 166.276 25.554C175.011 30.2562 183.509 35.3849 191.74 40.9217V40.9217Z" fill="#5F9A34"/>
<path fill-rule="evenodd" clip-rule="evenodd" d="M310.886 21.1642C280.255 -9.46321 224.439 -5.80463 166.274 25.5541C175.008 30.2563 183.507 35.3851 191.738 40.9218C214.255 30.5091 235.704 24.9267 253.872 24.9267C270.116 24.9267 283.747 29.381 293.196 38.8297C313.244 58.8782 310.862 97.6809 291.127 140.31C296.657 148.545 301.785 157.042 306.492 165.773C337.853 107.612 341.512 51.7916 310.882 21.1642H310.886Z" fill="#FFC750"/>
<path fill-rule="evenodd" clip-rule="evenodd" d="M191.74 40.9219C183.075 44.9654 174.637 49.4805 166.465 54.4468C211.634 82.389 249.666 120.478 277.54 165.69C282.522 157.481 287.058 149.008 291.127 140.31C277.925 120.765 262.866 102.541 246.16 85.8907C229.524 69.168 211.297 54.1072 191.738 40.9219H191.74Z" fill="#FFC750"/>
<path fill-rule="evenodd" clip-rule="evenodd" d="M306.495 165.773C301.799 174.474 296.678 182.939 291.15 191.136C287.082 182.412 282.539 173.918 277.542 165.692C282.524 157.483 287.06 149.011 291.129 140.312C296.659 148.547 301.787 157.044 306.495 165.775V165.773Z" fill="#FF512F"/>
<path fill-rule="evenodd" clip-rule="evenodd" d="M291.15 191.132C287.082 182.409 282.539 173.915 277.542 165.69C263.728 188.281 247.254 209.134 228.474 227.803C209.842 246.593 189.024 263.081 166.465 276.912C174.628 281.894 183.066 286.41 191.74 290.437C211.299 277.252 229.525 262.191 246.16 245.468C262.875 228.85 277.941 210.653 291.15 191.132V191.132Z" fill="#FF6895"/>
<path fill-rule="evenodd" clip-rule="evenodd" d="M324.411 207.711C319.773 193.198 313.774 179.157 306.494 165.773C301.799 174.473 296.678 182.936 291.15 191.132C310.866 233.74 313.249 272.499 293.198 292.527C273.15 312.576 234.368 310.174 191.74 290.437C189.985 291.63 188.229 292.778 186.472 293.907C179.902 298.14 173.165 302.109 166.278 305.803C197.24 322.506 227.533 331.351 253.729 331.351C276.725 331.351 296.566 324.536 310.886 310.215C333.297 287.803 338.084 251.406 324.411 207.711V207.711Z" fill="#FF6895"/>
<path fill-rule="evenodd" clip-rule="evenodd" d="M191.74 290.437C189.985 291.63 188.229 292.778 186.472 293.907C179.902 298.14 173.165 302.109 166.278 305.803C157.598 301.121 149.155 296.014 140.979 290.499C149.732 286.471 158.242 281.934 166.465 276.912C174.63 281.894 183.067 286.409 191.74 290.437Z" fill="#552990"/>
<path fill-rule="evenodd" clip-rule="evenodd" d="M116.855 299.867C82.4834 310.633 55.0139 308.019 39.5215 292.527C24.0291 277.037 21.4176 249.565 32.1835 215.196C34.7836 206.97 37.9049 198.919 41.5284 191.09C36.0217 182.91 30.9146 174.468 26.2251 165.794C18.953 179.171 12.9617 193.206 8.33105 207.711C-5.36009 251.406 -0.552605 287.803 21.8352 310.215C35.8858 324.243 55.4128 331.371 78.7853 331.371C94.2629 331.137 109.615 328.558 124.319 323.72C138.838 319.081 152.887 313.082 166.278 305.803C157.599 301.121 149.156 296.014 140.981 290.499C133.149 294.136 125.091 297.265 116.857 299.867H116.855Z" fill="#5666F6"/>
<path fill-rule="evenodd" clip-rule="evenodd" d="M140.979 290.499C149.732 286.471 158.242 281.934 166.465 276.912C143.831 263.097 122.942 246.609 104.248 227.802C85.4414 209.109 68.953 188.22 55.1386 165.586C50.1181 173.82 45.5746 182.335 41.5305 191.09C54.7605 210.625 69.848 228.836 86.5825 245.468C103.206 262.213 121.425 277.295 140.979 290.499V290.499Z" fill="#5666F6"/>
<path fill-rule="evenodd" clip-rule="evenodd" d="M55.1385 165.586C50.118 173.82 45.5746 182.335 41.5305 191.09C36.023 182.91 30.9152 174.468 26.2251 165.794C30.9297 157.05 36.0655 148.545 41.6136 140.31C45.6409 148.984 50.1564 157.423 55.1385 165.586V165.586Z" fill="#204FA0"/>
<path fill-rule="evenodd" clip-rule="evenodd" d="M39.5215 38.8296C55.0138 23.3393 82.4855 20.7258 116.855 31.5125C125.085 34.1161 133.143 37.2372 140.979 40.8574C149.149 35.3354 157.592 30.2279 166.276 25.554C152.889 18.2656 138.84 12.2663 124.317 7.63713C80.6447 -6.03323 44.2479 -1.24653 21.8352 21.1641C7.51454 35.4848 0.698059 55.3255 0.698059 78.3241C0.698059 104.52 9.54224 134.834 26.2251 165.796C30.9296 157.052 36.0655 148.547 41.6136 140.312C21.8767 97.6808 19.473 58.8781 39.5215 38.8296Z" fill="#5FC5A6"/>
<path fill-rule="evenodd" clip-rule="evenodd" d="M140.979 40.8574C101.879 67.4419 68.1637 101.187 41.6136 140.31C45.6409 148.984 50.1564 157.423 55.1385 165.586C83.086 120.376 121.207 82.3182 166.465 54.4468C158.242 49.4249 149.732 44.8881 140.979 40.8595V40.8574Z" fill="#5FC5A6"/>
<path d="M1461.93 233.321V247.17C1459.52 248.588 1456.77 249.324 1453.97 249.299C1442.56 249.582 1432.45 241.98 1429.53 230.923C1412.49 249.592 1384.98 254.248 1362.78 242.221C1340.57 230.192 1329.38 204.563 1335.61 180.044C1341.85 155.524 1363.92 138.401 1389.16 138.505C1396.35 138.488 1403.48 139.891 1410.14 142.633C1416.79 145.375 1422.84 149.403 1427.94 154.486V140.634H1444.4V219.47C1444.4 229.326 1449.45 233.321 1455.3 233.321H1461.93ZM1427.94 193.903C1427.94 172.427 1410.57 155.017 1389.16 155.017C1367.74 155.017 1350.38 172.427 1350.38 193.903C1350.38 215.379 1367.74 232.787 1389.16 232.787C1410.56 232.762 1427.91 215.368 1427.94 193.903V193.903ZM1482.7 86.5658H1500V249.308H1482.7V86.5658V86.5658ZM1309.68 193.186C1309.69 215.815 1296.28 236.236 1275.69 244.965C1255.09 253.693 1231.33 249.021 1215.45 233.117V247.147H1198.94V83.1025H1215.45V153.254C1231.33 137.35 1255.09 132.675 1275.69 141.405C1296.28 150.135 1309.69 170.553 1309.68 193.186V193.186ZM1293.17 193.186C1293.17 171.43 1275.78 153.794 1254.31 153.794C1232.85 153.794 1215.45 171.43 1215.45 193.184C1215.45 214.94 1232.85 232.577 1254.31 232.577C1259.43 232.588 1264.5 231.576 1269.23 229.602C1273.96 227.627 1278.24 224.729 1281.83 221.078C1289.14 213.641 1293.22 203.616 1293.17 193.186V193.186ZM1057.07 193.905C1057.07 163.309 1081.86 138.505 1112.44 138.505C1143.01 138.505 1167.8 163.309 1167.8 193.905C1167.8 224.504 1143.01 249.308 1112.44 249.308C1105.16 249.313 1097.96 247.884 1091.24 245.101C1084.52 242.319 1078.41 238.239 1073.27 233.094C1068.13 227.947 1064.05 221.837 1061.27 215.112C1058.49 208.388 1057.06 201.182 1057.07 193.905H1057.07ZM1151.3 193.905C1151.3 172.429 1133.9 155.019 1112.44 155.019C1090.97 155.019 1073.57 172.429 1073.57 193.907C1073.57 215.383 1090.97 232.793 1112.44 232.793C1133.89 232.768 1151.27 215.373 1151.3 193.905ZM974.019 160.816V165.64C974.298 207.42 944.175 242.913 903.663 248.543C863.15 254.173 824.846 228.187 814.199 187.847C803.551 147.509 823.872 105.364 861.659 89.4121C899.445 73.4564 942.95 88.6579 963.268 124.913L948.848 133.22C933.495 105.505 900.864 93.0852 871.51 103.783C842.159 114.482 824.582 145.201 829.859 176.587C835.136 207.974 861.733 230.94 892.899 231.015C924.062 231.089 950.767 208.255 956.19 176.894H892.999V160.816H974.015H974.019ZM1008.62 86.5638H1025.93V249.308H1008.62V86.5658V86.5638ZM783.698 86.5638V249.308H748.826V183.669H683.877V249.308H648.742V86.5658H683.877V151.932H748.826V86.5658H783.698V86.5638ZM634.901 118.301H595.17V249.308H560.703V118.301H520.708V86.5658H634.901V118.301V118.301ZM448.864 118.031V152.206H501.468V183.669H448.864V217.845H510.326V249.308H413.435V86.5658H510.326V118.026H448.864V118.031Z" fill="#1F294F"/>
</g>
<defs>
<clipPath id="clip0">
<rect width="1500" height="332.41" fill="white"/>
</clipPath>
</defs>
</svg>
